<mxfile host="app.diagrams.net" modified="2023-08-10T05:28:04.082Z" agent="Mozilla/5.0 (Macintosh; Intel Mac OS X 10_15_7) AppleWebKit/537.36 (KHTML, like Gecko) Chrome/115.0.0.0 Safari/537.36" etag="gVd1PZTMB1yT7aLvQS9L" version="21.6.7">
  <diagram name="Page-1" id="_le5Et1HCfzGi2yBG5jL">
    <mxGraphModel dx="564" dy="319" grid="1" gridSize="10" guides="1" tooltips="1" connect="1" arrows="1" fold="1" page="1" pageScale="1" pageWidth="827" pageHeight="1169" math="0" shadow="0">
      <root>
        <mxCell id="0" />
        <mxCell id="1" parent="0" />
        <mxCell id="3ta593iM4w25nW42LDZv-2" style="edgeStyle=orthogonalEdgeStyle;rounded=0;orthogonalLoop=1;jettySize=auto;html=1;entryX=0;entryY=0.5;entryDx=0;entryDy=0;" edge="1" parent="1" source="3ta593iM4w25nW42LDZv-5" target="3ta593iM4w25nW42LDZv-1">
          <mxGeometry relative="1" as="geometry" />
        </mxCell>
        <mxCell id="3ta593iM4w25nW42LDZv-15" style="edgeStyle=orthogonalEdgeStyle;rounded=0;orthogonalLoop=1;jettySize=auto;html=1;entryX=0;entryY=0.5;entryDx=0;entryDy=0;exitX=0.5;exitY=0;exitDx=0;exitDy=0;strokeWidth=0.3;dashed=1;dashPattern=8 8;startArrow=classic;startFill=1;endArrow=none;endFill=0;" edge="1" parent="1" source="CFgsXOstjajBnhrKOikB-1" target="3ta593iM4w25nW42LDZv-14">
          <mxGeometry relative="1" as="geometry" />
        </mxCell>
        <mxCell id="3ta593iM4w25nW42LDZv-17" value="Alice key" style="edgeLabel;html=1;align=center;verticalAlign=middle;resizable=0;points=[];" vertex="1" connectable="0" parent="3ta593iM4w25nW42LDZv-15">
          <mxGeometry x="-0.5375" relative="1" as="geometry">
            <mxPoint as="offset" />
          </mxGeometry>
        </mxCell>
        <mxCell id="CFgsXOstjajBnhrKOikB-1" value="&lt;font style=&quot;font-size: 9px;&quot; face=&quot;Courier New&quot;&gt;Sender&lt;br&gt;(Alice)&lt;br&gt;&lt;/font&gt;" style="rounded=0;whiteSpace=wrap;html=1;" parent="1" vertex="1">
          <mxGeometry x="140" y="280" width="120" height="60" as="geometry" />
        </mxCell>
        <mxCell id="3ta593iM4w25nW42LDZv-1" value="&lt;font style=&quot;font-size: 9px;&quot; face=&quot;Courier New&quot;&gt;Receiver&lt;br&gt;(Bob)&lt;br&gt;&lt;/font&gt;" style="rounded=0;whiteSpace=wrap;html=1;" vertex="1" parent="1">
          <mxGeometry x="460" y="280" width="120" height="60" as="geometry" />
        </mxCell>
        <mxCell id="3ta593iM4w25nW42LDZv-3" value="" style="ellipse;whiteSpace=wrap;html=1;aspect=fixed;" vertex="1" parent="1">
          <mxGeometry x="255" y="305" width="10" height="10" as="geometry" />
        </mxCell>
        <mxCell id="3ta593iM4w25nW42LDZv-6" value="" style="edgeStyle=orthogonalEdgeStyle;rounded=0;orthogonalLoop=1;jettySize=auto;html=1;entryX=0;entryY=0.5;entryDx=0;entryDy=0;exitX=0.25;exitY=0.003;exitDx=0;exitDy=0;exitPerimeter=0;" edge="1" parent="1" target="3ta593iM4w25nW42LDZv-5">
          <mxGeometry relative="1" as="geometry">
            <mxPoint x="265" y="310.09000000000003" as="sourcePoint" />
            <mxPoint x="460" y="310" as="targetPoint" />
            <Array as="points">
              <mxPoint x="320" y="310" />
              <mxPoint x="320" y="310" />
            </Array>
          </mxGeometry>
        </mxCell>
        <mxCell id="3ta593iM4w25nW42LDZv-7" value="TCP" style="edgeLabel;html=1;align=center;verticalAlign=middle;resizable=0;points=[];" vertex="1" connectable="0" parent="3ta593iM4w25nW42LDZv-6">
          <mxGeometry x="-0.1224" y="-1" relative="1" as="geometry">
            <mxPoint as="offset" />
          </mxGeometry>
        </mxCell>
        <mxCell id="3ta593iM4w25nW42LDZv-5" value="" style="ellipse;whiteSpace=wrap;html=1;aspect=fixed;" vertex="1" parent="1">
          <mxGeometry x="455" y="305" width="10" height="10" as="geometry" />
        </mxCell>
        <mxCell id="3ta593iM4w25nW42LDZv-8" value="" style="rounded=1;whiteSpace=wrap;html=1;" vertex="1" parent="1">
          <mxGeometry x="290" y="320" width="40" height="20" as="geometry" />
        </mxCell>
        <mxCell id="3ta593iM4w25nW42LDZv-9" value="" style="rounded=1;whiteSpace=wrap;html=1;" vertex="1" parent="1">
          <mxGeometry x="340" y="320" width="40" height="20" as="geometry" />
        </mxCell>
        <mxCell id="3ta593iM4w25nW42LDZv-10" value="" style="rounded=1;whiteSpace=wrap;html=1;" vertex="1" parent="1">
          <mxGeometry x="390" y="320" width="40" height="20" as="geometry" />
        </mxCell>
        <mxCell id="3ta593iM4w25nW42LDZv-11" value="" style="rounded=0;whiteSpace=wrap;html=1;fillColor=#dae8fc;strokeColor=#6c8ebf;" vertex="1" parent="1">
          <mxGeometry x="290" y="320" width="35" height="20" as="geometry" />
        </mxCell>
        <mxCell id="3ta593iM4w25nW42LDZv-12" value="" style="rounded=0;whiteSpace=wrap;html=1;fillColor=#dae8fc;strokeColor=#6c8ebf;" vertex="1" parent="1">
          <mxGeometry x="340" y="320" width="35" height="20" as="geometry" />
        </mxCell>
        <mxCell id="3ta593iM4w25nW42LDZv-13" value="" style="rounded=0;whiteSpace=wrap;html=1;fillColor=#dae8fc;strokeColor=#6c8ebf;" vertex="1" parent="1">
          <mxGeometry x="390" y="320" width="35" height="20" as="geometry" />
        </mxCell>
        <mxCell id="3ta593iM4w25nW42LDZv-14" value="&lt;font style=&quot;font-size: 8px;&quot; face=&quot;Courier New&quot;&gt;Quantum circuit&lt;br&gt;BB84 protocol&lt;/font&gt;" style="rounded=0;whiteSpace=wrap;html=1;" vertex="1" parent="1">
          <mxGeometry x="307.5" y="200" width="100" height="40" as="geometry" />
        </mxCell>
        <mxCell id="3ta593iM4w25nW42LDZv-16" style="edgeStyle=orthogonalEdgeStyle;rounded=0;orthogonalLoop=1;jettySize=auto;html=1;entryX=1;entryY=0.5;entryDx=0;entryDy=0;exitX=0.5;exitY=0;exitDx=0;exitDy=0;strokeWidth=0.3;dashed=1;dashPattern=8 8;startArrow=classic;startFill=1;endArrow=none;endFill=0;" edge="1" parent="1" source="3ta593iM4w25nW42LDZv-1" target="3ta593iM4w25nW42LDZv-14">
          <mxGeometry relative="1" as="geometry">
            <mxPoint x="210" y="290" as="sourcePoint" />
            <mxPoint x="310" y="230" as="targetPoint" />
          </mxGeometry>
        </mxCell>
        <mxCell id="3ta593iM4w25nW42LDZv-18" value="Bob key" style="edgeLabel;html=1;align=center;verticalAlign=middle;resizable=0;points=[];" vertex="1" connectable="0" parent="3ta593iM4w25nW42LDZv-16">
          <mxGeometry x="-0.5178" y="-1" relative="1" as="geometry">
            <mxPoint as="offset" />
          </mxGeometry>
        </mxCell>
      </root>
    </mxGraphModel>
  </diagram>
</mxfile>
